<svg xmlns="http://www.w3.org/2000/svg" version="1.1" xmlns:xlink="http://www.w3.org/1999/xlink" xmlns:svgjs="http://svgjs.com/svgjs" width="512" height="512" x="0" y="0" viewBox="0 0 511.986 511.986" style="enable-background:new 0 0 512 512" xml:space="preserve" class=""><g><path fill="#0052d7" d="M378.543 499.81c19.428-7.01 34.446-18.965 34.446-18.965-46.587-5.463-91.898-13.836-134.597-30.824l-11.733 29.97 11.733 30.237c34.991 4.367 69.929.486 100.151-10.418zM453.26 116.802c-5.322-12.182-11.915-23.951-19.755-34.94-15.668-21.999-36.22-40.849-59.913-54.882C349.895 12.948 322.919 3.945 295.1.991a184.656 184.656 0 0 0-16.707-.973L266.66 31.991l11.733 41.952c2.942.103 5.883.305 8.82.62l.073.008c57.049 6.152 113.162 58.972 110.543 118.325-2.49 56.409-68.682 104.297-119.435 72.823l-11.733 32.939 11.733 38.986c26.37 8.154 55.469 8.766 82.519-.894 21.892-7.817 43.525-19.882 61.174-37.485 4.464-4.347 8.568-9.099 12.544-14.003 37.134-48.248 42.51-113.795 18.629-168.46z" data-original="#7f60e5" class=""></path><g fill="#a260e5"><path d="M115.311 247.57c-.478-45.166 12.826-89.707 47.871-124.862 29.726-29.82 72.546-50.248 115.211-48.765V.018c-35.723-.493-71.64 9.051-102.601 24.716C105.231 60.437 53.315 131.365 45.647 210.188c-9.417 96.805 27.367 225.548 177.32 285.785 18.016 7.237 36.728 11.921 55.425 14.255v-60.207c-25.126-9.996-49.35-22.97-72.391-40.104-68.969-51.285-90.157-111.946-90.69-162.347z" fill="#6093e5" data-original="#a260e5" class=""></path><path d="M265.595 255.708c-22.048-21.249-22.073-52.317-8.981-79.079 8.628-17.638 21.546-28.039 21.546-28.039s-3.139-.95-4.724-1.318c-31.825-6.275-62.271 16.751-74.466 44.948-28.441 66.66 18.101 126.461 79.422 145.423v-71.924c-4.398-2.728-8.682-6.045-12.797-10.011z" fill="#6093e5" data-original="#a260e5" class=""></path></g></g></svg>